#!OML:ASF G:\ViconDB\ViconDB\414\test\team2\shane.ASF
:FULLY-SPECIFIED
:DEGREES
267
root 4.9264 16.0506 7.9282 -5.93293 4.81494 -8.08606
lowerback 4.70545 -6.9123 0.626803
upperback 3.07391 -9.31014 9.07984
thorax 2.05215 -4.85095 9.40913
lowerneck -16.6302 2.42371 -4.96513
upperneck 15.0623 4.30351 1.18462
head 7.22386 1.88264 1.66147
rclavicle -1.11121e-013 7.4743e-014
rhumerus -39.7701 -2.76482 -78.8256
rradius 36.4979
rwrist 30.9998
rhand -32.9748 -16.7104
rfingers 7.12502
rthumb -6.18992 -46.5999
lclavicle -1.11121e-013 7.4743e-014
lhumerus -23.4148 -16.8499 98.2199
lradius 27.7207
lwrist -16.3079
lhand -41.8113 6.71114
lfingers 7.12502
lthumb -14.7134 36.169
rfemur -23.9453 -21.1823 28.7782
rtibia 50.3732
rfoot -20.5182 4.24483
rtoes -3.22419
lfemur 22.2053 -2.71585 -6.62387
ltibia 39.1887
lfoot -5.65467 -19.5109
ltoes -25.2492
268
root 4.89848 16.041 8.13305 -6.14538 5.16264 -8.18648
lowerback 4.84526 -6.73653 0.709628
upperback 3.03709 -9.05219 9.00325
thorax 1.86567 -4.70958 9.30202
lowerneck -16.9069 2.09291 -5.00782
upperneck 15.3557 3.84969 1.37243
head 7.37757 1.6739 1.6919
rclavicle 6.1822e-014 -3.33958e-014
rhumerus -39.5777 -4.36165 -78.2131
rradius 37.0468
rwrist 36.916
rhand -29.6751 -17.8704
rfingers 7.12502
rthumb -3.00366 -47.829
lclavicle 6.1822e-014 -3.33958e-014
lhumerus -24.3173 -17.8433 98.8336
lradius 27.5498
lwrist -15.0635
lhand -41.1313 7.30792
lfingers 7.12502
lthumb -14.0582 36.8125
rfemur -23.0987 -21.2684 28.8705
rtibia 50.6987
rfoot -21.5834 3.11191
rtoes -3.5861
lfemur 20.1818 -2.54534 -5.83513
ltibia 43.563
lfoot -3.21765 -19.9564
ltoes -20.2039
269
root 4.86396 16.0166 8.32953 -6.40116 5.11122 -8.38496
lowerback 5.0304 -6.45641 0.771234
upperback 3.04894 -8.6576 8.92525
thorax 1.68827 -4.50158 9.20584
lowerneck -16.8359 1.87265 -4.80652
upperneck 15.346 3.47619 1.47488
head 7.37599 1.51748 1.6517
rclavicle -8.33902e-014 7.4743e-014
rhumerus -39.7128 -3.01535 -80.0428
rradius 37.8141
rwrist 30.5744
rhand -32.7347 -16.4495
rfingers 7.12502
rthumb -5.95804 -46.3457
lclavicle -8.33902e-014 7.4743e-014
lhumerus -25.2349 -18.6005 99.2378
lradius 27.3155
lwrist -14.2809
lhand -40.3074 7.317
lfingers 7.12502
lthumb -13.2641 36.8749
rfemur -22.1432 -20.7343 29.0887
rtibia 50.9945
rfoot -22.5807 1.91758
rtoes -4.1266
lfemur 18.3985 -1.87612 -4.85013
ltibia 47.6934
lfoot -1.56534 -20.2467
ltoes -14.8522
270
root 4.82832 15.998 8.52333 -6.65504 5.58905 -8.48211
lowerback 5.28483 -6.29409 0.774328
upperback 3.02845 -8.41588 8.84806
thorax 1.47333 -4.37104 9.15291
lowerneck -17.0651 1.54933 -4.84058
upperneck 15.4393 3.03702 1.58611
head 7.45865 1.31437 1.65127
rclavicle -8.70677e-014 6.20208e-014
rhumerus -39.5114 -3.93642 -79.9396
rradius 38.5331
rwrist 35.0176
rhand -30.8795 -17.2407
rfingers 7.12502
rthumb -4.1668 -47.1797
lclavicle -8.70677e-014 6.20208e-014
lhumerus -25.7417 -18.5599 99.4436
lradius 26.6265
lwrist -15.2181
lhand -39.8327 6.97035
lfingers 7.12502
lthumb -12.8065 36.5575
rfemur -21.1932 -20.6197 29.1222
rtibia 51.2472
rfoot -23.5717 0.791395
rtoes -4.12777
lfemur 16.52 -1.62464 -4.00749
ltibia 51.4969
lfoot -0.81466 -20.2729
ltoes -9.64235
271
root 4.79778 15.9772 8.71392 -6.87409 5.75222 -8.86851
lowerback 5.46129 -6.02268 1.19648
upperback 3.02792 -8.01187 8.7929
thorax 1.24259 -4.14846 8.87218
lowerneck -16.9945 1.26728 -4.72714
upperneck 15.242 2.59595 1.70741
head 7.39622 1.12574 1.62099
rclavicle 1.78906e-014 -2.38542e-014
rhumerus -39.5932 -2.54355 -81.5088
rradius 39.5099
rwrist 30.895
rhand -32.824 -16.5606
rfingers 7.12502
rthumb -6.04428 -46.4544
lclavicle 1.78906e-014 -2.38542e-014
lhumerus -26.7467 -20.2879 100.091
lradius 26.7774
lwrist -13.7105
lhand -39.1533 7.07721
lfingers 7.12502
lthumb -12.1515 36.7043
rfemur -20.2563 -20.2178 29.5029
rtibia 51.4464
rfoot -24.4901 -0.129826
rtoes -4.16686
lfemur 14.7605 -1.23119 -2.97444
ltibia 55.0289
lfoot -1.21089 -19.9604
ltoes -5.09693
272
root 4.76319 15.9572 8.90191 -7.20891 6.01942 -9.29191
lowerback 5.68727 -5.80041 1.54428
upperback 3.10602 -7.6809 8.76464
thorax 1.09868 -3.96966 8.6617
lowerneck -17.0686 0.90405 -4.86254
upperneck 15.1455 2.09577 1.93779
head 7.3902 0.902699 1.66386
rclavicle 5.75482e-014 -1.27222e-014
rhumerus -39.2516 -2.08222 -82.3029
rradius 40.4107
rwrist 30.4313
rhand -33.018 -16.4529
rfingers 7.12502
rthumb -6.23161 -46.3412
lclavicle 5.75482e-014 -1.27222e-014
lhumerus -27.4135 -21.067 100.439
lradius 26.8801
lwrist -12.7947
lhand -38.3414 6.84089
lfingers 7.12502
lthumb -11.3685 36.5127
rfemur -19.2446 -19.7597 29.9208
rtibia 51.5365
rfoot -25.336 -1.16252
rtoes -4.12825
lfemur 13.099 -0.311761 -1.6301
ltibia 58.238
lfoot -4.2818 -19.2272
ltoes -8.15419
273
root 4.73043 15.943 9.09193 -7.51458 6.07965 -9.66832
lowerback 5.74116 -5.55904 1.82923
upperback 3.25894 -7.34727 8.70618
thorax 1.13649 -3.79476 8.42608
lowerneck -17.1725 0.589937 -4.93019
upperneck 15.0413 1.64226 2.19682
head 7.38701 0.708858 1.71025
rclavicle 2.43511e-014 -9.54166e-015
rhumerus -38.8877 -1.36078 -83.1596
rradius 41.8236
rwrist 30.8134
rhand -30.9526 -17.5738
rfingers 7.12502
rthumb -4.23735 -47.5114
lclavicle 2.43511e-014 -9.54166e-015
lhumerus -28.0927 -21.8191 100.728
lradius 26.7112
lwrist -12.9518
lhand -38.2481 6.76488
lfingers 7.12502
lthumb -11.2785 36.4417
rfemur -18.1061 -19.3737 30.2892
rtibia 51.5207
rfoot -26.2588 -1.87824
rtoes -3.09454
lfemur 11.4578 -0.0309384 -0.579215
ltibia 61.2204
lfoot -6.77608 -17.7241
ltoes -10.681
274
root 4.70473 15.9374 9.27535 -7.80769 6.12082 -9.98995
lowerback 5.72464 -5.24679 2.23009
upperback 3.47652 -6.92215 8.58138
thorax 1.25014 -3.57016 8.03826
lowerneck -17.2397 0.216803 -5.15674
upperneck 14.7664 1.09221 2.75862
head 7.32363 0.490964 1.86912
rclavicle 1.67973e-014 -6.36111e-015
rhumerus -38.2757 -0.526275 -84.0109
rradius 42.0295
rwrist 32.0082
rhand -31.8369 -17.4955
rfingers 7.12502
rthumb -5.09121 -47.4143
lclavicle 1.67973e-014 -6.36111e-015
lhumerus -28.8773 -23.1982 101.09
lradius 26.9523
lwrist -12.3665
lhand -37.9952 6.89439
lfingers 7.12502
lthumb -11.0346 36.5843
rfemur -16.9199 -19.0395 30.5678
rtibia 51.3876
rfoot -27.1395 -2.45863
rtoes -3.1824
lfemur 9.88528 0.458904 0.3599
ltibia 63.8664
lfoot -8.72751 -16.4999
ltoes -11.8778
275
root 4.68569 15.9244 9.45129 -8.01926 5.98395 -10.3732
lowerback 5.6138 -4.93989 2.77771
upperback 3.68215 -6.50589 8.49042
thorax 1.40083 -3.34648 7.5965
lowerneck -17.3277 -0.0896125 -5.07003
upperneck 14.5946 0.662772 2.73743
head 7.30113 0.290894 1.7994
rclavicle -2.14687e-014 -3.65764e-014
rhumerus -37.4619 0.539466 -85.237
rradius 42.132
rwrist 29.6442
rhand -33.7923 -16.8023
rfingers 7.12502
rthumb -6.97907 -46.6673
lclavicle -2.14687e-014 -3.65764e-014
lhumerus -29.4887 -23.9682 101.353
lradius 26.9575
lwrist -12.2005
lhand -37.9294 6.89989
lfingers 7.12502
lthumb -10.9712 36.5932
rfemur -15.8347 -18.7399 30.9808
rtibia 51.1595
rfoot -27.7755 -3.1907
rtoes -3.57864
lfemur 8.24379 1.12866 1.29204
ltibia 66.3052
lfoot -9.89597 -15.6986
ltoes -10.7523
276
root 4.67343 15.9173 9.63379 -8.30227 5.71835 -10.4711
lowerback 5.34301 -4.57258 3.11422
upperback 4.02597 -6.04834 8.32662
thorax 1.80427 -3.10752 7.17471
lowerneck -17.5811 -0.44013 -5.45165
upperneck 14.4603 0.217664 3.18057
head 7.31768 0.10175 1.95841
rclavicle 4.31363e-014 -1.74931e-014
rhumerus -36.5848 2.14356 -86.1321
rradius 42.5057
rwrist 29.3844
rhand -33.6064 -17.0347
rfingers 7.12502
rthumb -6.7996 -46.9055
lclavicle 4.31363e-014 -1.74931e-014
lhumerus -29.9924 -24.5852 101.581
lradius 26.8969
lwrist -12.01
lhand -38.235 6.53984
lfingers 7.12502
lthumb -11.2659 36.2173
rfemur -14.566 -18.5296 30.9886
rtibia 50.8575
rfoot -28.2986 -3.68178
rtoes -4.21629
lfemur 6.8274 2.0347 1.90215
ltibia 68.4325
lfoot -11.1186 -15.0573
ltoes -10.2328
277
root 4.65851 15.9194 9.80816 -8.58905 5.49954 -10.4364
lowerback 5.19901 -4.21931 3.25618
upperback 4.32315 -5.60408 8.13743
thorax 2.11397 -2.87767 6.85447
lowerneck -17.7322 -0.795668 -5.81595
upperneck 14.262 -0.232239 3.57253
head 7.29988 -0.0932334 2.09557
rclavicle 9.36276e-014 -4.77083e-014
rhumerus -35.7405 3.54703 -86.9455
rradius 42.7888
rwrist 29.0506
rhand -34.0658 -17.0393
rfingers 7.12502
rthumb -7.24309 -46.8953
lclavicle 9.36276e-014 -4.77083e-014
lhumerus -30.8024 -25.6899 102.125
lradius 27.3086
lwrist -10.0257
lhand -38.4469 6.83171
lfingers 7.12502
lthumb -11.4703 36.4979
rfemur -13.2605 -18.3106 30.8552
rtibia 50.4802
rfoot -28.7536 -4.22256
rtoes -5.15843
lfemur 5.38993 2.7592 2.3006
ltibia 70.2827
lfoot -12.3588 -14.2901
ltoes -9.91509
278
root 4.63182 15.9287 9.96278 -8.72799 5.79385 -10.5993
lowerback 5.19639 -4.05583 3.27591
upperback 4.44011 -5.39091 8.02608
thorax 2.2027 -2.76716 6.71361
lowerneck -17.6419 -0.881651 -5.51459
upperneck 14.0144 -0.404654 3.44053
head 7.21108 -0.169948 1.98081
rclavicle 5.57591e-014 -7.31528e-014
rhumerus -34.7955 5.27036 -87.8428
rradius 42.8449
rwrist 28.8313
rhand -34.4724 -17.7223
rfingers 7.12502
rthumb -7.63557 -47.5645
lclavicle 5.57591e-014 -7.31528e-014
lhumerus -31.1217 -25.2293 101.905
lradius 26.5957
lwrist -11.9573
lhand -39.1315 6.56288
lfingers 7.12502
lthumb -12.1305 36.1912
rfemur -12.3081 -18.2561 31.0381
rtibia 50.0159
rfoot -29.0184 -4.68877
rtoes -5.10653
lfemur 3.43122 3.01019 2.82934
ltibia 71.8993
lfoot -13.4647 -13.6028
ltoes -10.3556
279
root 4.6112 15.943 10.126 -8.92204 5.7696 -10.6464
lowerback 6.63781 -5.04549 -0.471628
upperback 3.95763 -6.81049 9.42176
thorax 1.6848 -3.63632 10.5896
lowerneck -17.1054 0.497343 -5.44423
upperneck 14.3069 1.63458 2.23003
head 7.13137 0.69027 1.7941
rclavicle 6.13251e-014 -6.20208e-014
rhumerus -34.2765 12.0086 -88.5557
rradius 42.3323
rwrist 29.0298
rhand -33.3538 -17.7667
rfingers 7.12502
rthumb -6.55576 -47.6453
lclavicle 6.13251e-014 -6.20208e-014
lhumerus -31.6315 -18.3245 101.544
lradius 26.0857
lwrist -13.4596
lhand -39.5698 6.71087
lfingers 7.12502
lthumb -12.553 36.3138
rfemur -11.1356 -18.102 31.0337
rtibia 49.4193
rfoot -29.2594 -5.05707
rtoes -5.47346
lfemur 1.8396 3.84049 3.19579
ltibia 73.1279
lfoot -14.7173 -12.6537
ltoes -10.9357
